<?xml version="1.0" standalone="no"?>
<!DOCTYPE svg PUBLIC "-//W3C//DTD SVG 20010904//EN"
 "http://www.w3.org/TR/2001/REC-SVG-20010904/DTD/svg10.dtd">
<svg version="1.0" xmlns="http://www.w3.org/2000/svg"
 width="96.000000pt" height="96.000000pt" viewBox="0 0 96.000000 96.000000"
 preserveAspectRatio="xMidYMid meet">
<metadata>
Created by potrace 1.14, written by Peter Selinger 2001-2017
</metadata>
<g transform="translate(0.000000,96.000000) scale(0.100000,-0.100000)"
fill="#000000" stroke="none">
<path d="M399 736 c-46 -16 -109 -55 -109 -67 0 -5 -12 -9 -28 -9 -45 0 -95
-41 -107 -89 -3 -13 -18 -33 -32 -44 -32 -26 -63 -92 -63 -137 0 -41 29 -108
56 -132 47 -41 86 -48 275 -48 175 0 181 1 200 23 10 12 18 25 19 29 0 4 -94
8 -210 10 l-210 3 -32 33 c-28 28 -33 39 -33 82 0 40 5 54 29 79 16 17 37 33
46 36 12 4 16 13 13 29 -6 31 30 68 61 64 14 -2 38 11 66 35 114 98 269 64
331 -73 l23 -50 57 0 c32 0 69 -4 83 -10 15 -5 26 -6 26 0 0 15 -50 49 -89 61
-28 8 -42 22 -64 60 -56 102 -198 155 -308 115z"/>
<path d="M724 436 c-33 -15 -64 -68 -64 -108 1 -12 7 -36 14 -53 12 -28 10
-32 -17 -60 -30 -30 -57 -82 -57 -110 0 -10 10 -15 29 -15 24 0 31 5 36 29 13
60 80 100 144 86 38 -8 78 -48 86 -86 5 -24 12 -29 36 -29 19 0 29 5 29 15 0
28 -27 80 -57 110 -27 28 -29 32 -17 60 18 41 17 71 -2 111 -27 57 -95 78
-160 50z m106 -78 c13 -25 13 -31 0 -55 -21 -38 -71 -44 -94 -11 -22 32 -20
64 7 83 32 22 69 15 87 -17z"/>
</g>
</svg>
